<svg xmlns="http://www.w3.org/2000/svg" width="812" height="504" viewBox="0 0 812 504">
  <g fill="#FFF" transform="translate(0 .432)">
    <path d="M38.59 260.487892L38.83 260.487892C43.4 260.487892 46.36 263.377892 46.36 267.837892L46.36 359.477892C46.36 363.947892 43.41 366.837892 38.83 366.837892L38.59 366.837892 38.59 368.177892 69.61 368.177892 69.61 366.837892 69.37 366.837892C65.43 366.837892 61.84 363.327892 61.84 359.477892L61.84 267.837892C61.84 263.987892 65.43 260.487892 69.37 260.487892L69.61 260.487892 69.61 259.147892 38.59 259.147892 38.59 260.487892zM159.17 359.477892L159.17 316.677892C159.17 305.017892 155.65 295.807892 148.98 290.047892 142.43 284.377892 132.96 282.107892 122.31 283.657892 114.14 284.897892 106.29 290.817892 100.66 299.957892L100.66 283.277892 100.29 283.527892C95.05 287.117892 88.18 290.867892 76.94 291.427892L76.71 291.427892 76.71 292.597892 77.81 292.597892C82.17 292.597892 85.34 295.767892 85.34 300.127892L85.34 359.487892C85.34 363.957892 82.39 366.847892 77.81 366.847892L77.57 366.847892 77.57 368.187892 108.42 368.187892 108.42 366.847892 108.18 366.847892C104.24 366.847892 100.65 363.337892 100.65 359.487892L100.65 305.007892C105.93 293.637892 115.41 286.877892 125.43 287.417892 136.96 287.977892 143.84 298.657892 143.84 315.997892L143.84 359.487892C143.84 364.027892 140.89 366.847892 136.14 366.847892L135.9 366.847892 135.9 368.187892 166.92 368.187892 166.92 366.847892 166.68 366.847892C162.74 366.847892 159.15 363.337892 159.15 359.487892L159.17 359.477892zM254.08 359.477892L254.08 316.677892C254.08 305.017892 250.56 295.807892 243.89 290.047892 237.34 284.377892 227.87 282.107892 217.22 283.657892 209.06 284.897892 201.2 290.817892 195.58 299.957892L195.58 283.277892 195.21 283.527892C189.97 287.117892 183.1 290.867892 171.86 291.427892L171.63 291.427892 171.63 292.597892 172.73 292.597892C177.09 292.597892 180.26 295.767892 180.26 300.127892L180.26 359.487892C180.26 363.957892 177.31 366.847892 172.73 366.847892L172.49 366.847892 172.49 368.187892 203.34 368.187892 203.34 366.847892 203.1 366.847892C199.16 366.847892 195.57 363.337892 195.57 359.487892L195.57 305.007892C200.85 293.637892 210.35 286.877892 220.35 287.417892 231.88 287.977892 238.76 298.657892 238.76 315.997892L238.76 359.487892C238.76 364.027892 235.81 366.847892 231.06 366.847892L230.82 366.847892 230.82 368.187892 261.84 368.187892 261.84 366.847892 261.6 366.847892C257.66 366.847892 254.07 363.337892 254.07 359.487892L254.08 359.477892zM314.75 283.477892C302.81 283.477892 291.88 287.827892 283.99 295.717892 276.07 303.637892 271.71 314.637892 271.71 326.687892 271.71 351.227892 289.81 369.037892 314.75 369.037892 339.69 369.037892 357.79 351.227892 357.79 326.687892 357.79 314.697892 353.43 303.717892 345.51 295.777892 337.6 287.847892 326.68 283.477892 314.75 283.477892L314.75 283.477892zM330.88 362.017892C327.82 363.377892 324.6 364.067892 321.31 364.067892 309.05 364.067892 296.9 354.137892 289.6 338.147892 280.18 317.357892 283.98 297.317892 298.62 290.487892 301.68 289.127892 304.79 288.437892 307.84 288.437892 319.9 288.437892 332.12 298.767892 339.72 315.397892 349.18 336.097892 345.53 355.267892 330.87 362.017892L330.88 362.017892zM442.62 285.377892L427.37 285.377892 427.37 286.357892 427.59 286.377892C428.86 286.467892 430 287.137892 430.65 288.147892 431.54 289.537892 431.55 291.557892 430.66 293.997892L407.75 354.357892 381.92 291.407892C381.45 290.297892 381.42 289.387892 381.82 288.697892 382.67 287.217892 385.3 286.867892 387.05 286.637892 387.25 286.607892 387.44 286.587892 387.61 286.557892L387.81 286.527892 387.81 285.397892 357.3 285.397892 357.3 286.537892 357.83 286.597892C360.7 286.907892 363.19 287.177892 366.47 295.047892L396.67 368.047892 396.73 368.197892 407.06 368.197892 434.73 294.177892C435.95 290.817892 437.56 287.447892 442.44 286.397892 442.54 286.397892 442.63 286.347892 442.69 286.267892 442.79 286.127892 442.78 285.887892 442.67 285.557892L442.62 285.397892 442.62 285.377892zM525.11 363.377892C522.45 363.377892 521.72 362.127892 521.72 357.577892L521.72 308.217892C521.72 292.137892 510.18 283.647892 488.35 283.647892 480.85 283.647892 462.11 284.947892 450.04 297.007892 448.97 298.077892 448.43 299.487892 448.51 300.977892 448.6 302.617892 449.44 304.227892 450.84 305.397892L450.84 305.567892 450.92 305.637892C452.17 306.707892 453.44 307.247892 454.7 307.247892 456.71 307.247892 458.5 305.977892 459.74 303.667892 464.02 295.767892 471.12 286.707892 488.18 286.707892 500.55 286.707892 506.06 291.527892 506.06 302.347892L506.06 313.857892C497.38 314.287892 481.05 315.787892 467.56 321.007892 452.57 326.797892 445.09 335.507892 445.32 346.887892 445.66 360.867892 457.34 369.897892 475.07 369.897892 487.56 369.897892 496.53 365.507892 506.07 358.897892 506.29 368.147892 513.28 369.127892 515.44 369.207892 515.59 369.207892 515.75 369.207892 515.9 369.207892 519.99 369.207892 524.82 367.257892 529.23 363.797892L529.32 363.727892 529.32 362.797892 529.03 362.857892C527.51 363.197892 526.15 363.367892 525.11 363.367892L525.11 363.377892zM506.06 316.237892L506.06 356.077892C499.62 360.957892 489.58 366.137892 480.58 366.137892 468.05 366.137892 462.35 355.347892 462.35 345.317892 462.15 320.467892 498.13 316.757892 506.05 316.237892L506.06 316.237892zM574.29 368.037892C570.54 368.037892 567.78 367.097892 565.86 365.167892 562.2 361.497892 562.24 354.787892 562.27 348.307892 562.27 347.707892 562.27 347.117892 562.27 346.527892L562.27 288.437892 581.26 288.437892 581.26 285.377892 562.27 285.377892 562.27 263.807892 559.26 263.807892 559.22 263.987892C555.46 280.247892 551.77 285.027892 534.6 285.377892L534.37 285.377892 534.37 288.437892 546.97 288.437892 546.97 348.427892C546.97 363.017892 554.54 370.407892 569.47 370.407892 574.01 370.407892 578.33 369.767892 582.31 368.497892L582.48 368.447892 582.48 366.747892 582.17 366.847892C579.6 367.647892 577.02 368.047892 574.3 368.047892L574.29 368.037892zM609.21 359.477892L609.21 285.177892 608.84 285.417892C603.08 289.207892 596.26 292.787892 585.49 293.317892L585.26 293.317892 585.26 294.477892 586.36 294.477892C590.72 294.477892 593.89 297.647892 593.89 302.007892L593.89 359.477892C593.89 363.947892 590.94 366.837892 586.36 366.837892L586.12 366.837892 586.12 368.177892 616.97 368.177892 616.97 366.837892 616.73 366.837892C612.79 366.837892 609.2 363.327892 609.2 359.477892L609.21 359.477892zM669.54 283.477892C657.6 283.477892 646.67 287.827892 638.78 295.717892 630.86 303.637892 626.5 314.637892 626.5 326.687892 626.5 351.227892 644.6 369.037892 669.54 369.037892 694.48 369.037892 712.58 351.227892 712.58 326.687892 712.58 314.697892 708.22 303.717892 700.3 295.777892 692.39 287.847892 681.47 283.477892 669.54 283.477892L669.54 283.477892zM653.41 290.487892C656.47 289.127892 659.58 288.437892 662.63 288.437892 674.69 288.437892 686.91 298.767892 694.51 315.397892 703.97 336.097892 700.33 355.267892 685.66 362.017892 682.6 363.377892 679.38 364.067892 676.09 364.067892 663.83 364.067892 651.68 354.137892 644.38 338.147892 634.96 317.357892 638.76 297.317892 653.4 290.487892L653.41 290.487892zM811.22 366.827892C807.28 366.827892 803.69 363.317892 803.69 359.467892L803.69 316.667892C803.69 305.007892 800.17 295.797892 793.5 290.037892 786.95 284.367892 777.48 282.097892 766.83 283.647892 758.66 284.887892 750.81 290.807892 745.19 299.947892L745.19 283.267892 744.82 283.517892C739.58 287.107892 732.71 290.857892 721.47 291.417892L721.24 291.417892 721.24 292.587892 722.34 292.587892C726.7 292.587892 729.87 295.757892 729.87 300.117892L729.87 359.477892C729.87 363.947892 726.92 366.837892 722.34 366.837892L722.1 366.837892 722.1 368.177892 752.95 368.177892 752.95 366.837892 752.71 366.837892C748.77 366.837892 745.18 363.327892 745.18 359.477892L745.18 304.997892C750.46 293.627892 759.93 286.907892 769.96 287.407892 781.49 287.967892 788.37 298.647892 788.37 315.987892L788.37 359.477892C788.37 364.017892 785.42 366.837892 780.67 366.837892L780.43 366.837892 780.43 368.177892 811.45 368.177892 811.45 366.837892 811.21 366.837892 811.22 366.827892z"/>
    <circle cx="601.12" cy="271.798" r="6.46"/>
    <path d="M19.79 120.107892L11.68 120.107892 8.03 142.067892C7.25 146.967892 9.6 147.757892 12.15 147.757892 13.42 147.757892 14.21 147.557892 14.7 147.467892L15.09 152.667892C14.21 152.957892 12.74 153.357892 10.58 153.357892 5.68 153.357892.97 150.217892 2.05 143.657892L5.92 120.127892.28 120.127892 1.06 115.227892 6.72 115.227892 8.22 106.207892 14 106.207892 12.5 115.227892 20.56 115.227892 19.78 120.127892 19.79 120.107892zM29.59 152.847892L23.81 152.847892 32.14 102.657892 37.92 102.657892 34.88 121.087892 35.37 121.087892C37.72 117.167892 41.55 114.717892 47.52 114.717892 55.17 114.717892 59.58 119.227892 58.01 128.927892L53.99 152.847892 48.21 152.847892 52.13 129.317892C53.11 123.337892 50.37 119.907892 44.97 119.907892 39.28 119.907892 34.48 123.627892 33.31 130.197892L29.59 152.837892 29.59 152.847892zM65.97 134.327892C67.86 122.757892 75.99 114.727892 86.16 114.727892 94.02 114.727892 101.57 119.527892 99.2 133.547892L98.81 135.997892 71.44 135.997892C70.04 145.207892 73.92 148.447892 81.17 148.447892 85.8 148.447892 89.43 146.487892 91.56 142.567892L96.85 144.137892C94.13 149.827892 87.95 153.647892 80.28 153.647892 69.42 153.647892 64.03 145.907892 65.97 134.337892L65.97 134.327892zM93.71 130.987892C94.81 124.617892 91.58 119.907892 85.28 119.907892 78.98 119.907892 73.39 125.637892 72.24 130.987892L93.71 130.987892 93.71 130.987892zM740.21 133.837892C742.05 122.267892 749.99 114.727892 760.01 114.727892 770.03 114.727892 776.04 122.667892 774.13 134.627892 772.24 146.097892 764.3 153.647892 754.33 153.647892 744.36 153.647892 738.28 145.707892 740.21 133.847892L740.21 133.837892zM768.54 133.837892C769.69 126.487892 767.44 119.917892 759.91 119.917892 751.94 119.917892 747.02 126.877892 745.79 134.617892 744.59 141.967892 746.84 148.437892 754.42 148.437892 762 148.437892 767.26 141.597892 768.54 133.827892L768.54 133.837892zM802.22 120.107892L793.72 120.107892 788.31 152.847892 782.53 152.847892 788 120.107892 781.95 120.107892 782.73 115.207892 788.83 115.207892 789.69 110.007892C790.67 103.537892 796.45 100.307892 801.84 100.307892 804.68 100.307892 806.35 100.897892 807.13 101.287892L804.68 106.287892C804.09 106.087892 803.21 105.697892 801.54 105.697892 797.72 105.697892 795.85 107.657892 795.17 111.387892L794.53 115.207892 803.01 115.207892 802.23 120.107892 802.22 120.107892z"/>
    <rect width="49.7" height="4.31" x="744.82" y="177.568"/>
    <rect width="49.7" height="4.31" x="24.4" y="177.568"/>
    <path d="M438.66,72.5878921 C444.27,64.9878921 450.07,57.1378921 455.58,49.3278921 C462.23,40.2178921 469.09,30.8178921 474.59,21.0678921 C476.58,18.0878921 477.72,14.9978921 477.94,12.0678921 C478.56,7.3378921 476.93,3.8378921 472.68,0.647892097 C470.69,-0.722107903 468.39,0.247892097 464.85,1.9978921 C464.3,2.2678921 463.76,2.5378921 463.21,2.7978921 L462.84,2.9178921 C462.69,2.9878921 462.53,3.0578921 462.34,3.1078921 C451.3,9.1878921 441.96,15.1178921 433.81,21.2378921 C415.45,35.4178921 397.34,51.8778921 378.49,71.5578921 C365.51,85.4978921 351.68,100.567892 338.63,116.177892 C322.87,135.437892 307.16,154.947892 291.95,174.147892 L291.85,174.317892 C291.34,175.107892 290.58,176.287892 288.93,176.617892 L286.73,177.057892 L287.45,174.937892 C287.54,174.667892 287.59,174.477892 287.64,174.307892 C287.74,173.937892 287.82,173.667892 288.02,173.267892 C293.93,160.357892 300.44,146.717892 309.11,129.087892 C320.15,107.237892 331.07,84.7478921 342.49,60.3178921 C347.41,50.4878921 350.16,43.0078921 351.43,36.0278921 C352.71,29.8978921 352.02,24.8678921 349.35,20.6278921 C344,12.2578921 337.85,11.0878921 326.64,16.3378921 C319.28,20.0178921 312.95,23.7378921 306.76,28.0178921 C303.8,30.2378921 300.74,32.5378921 297.45,34.8078921 L296.56,35.4178921 L295.8,34.6578921 C294.73,33.5878921 294.5,32.3278921 294.33,31.4078921 C294.29,31.1978921 294.25,30.9878921 294.2,30.7878921 C290.01,18.2478921 282.4,13.4778921 268.73,14.9378921 C262.51,15.4178921 255.86,16.8278921 248.92,19.1478921 C221.66,28.6878921 198.53,40.6178921 178.23,55.6178921 C156.87,71.6378921 141.81,89.4578921 132.19,110.097892 C125.65,124.427892 126.11,136.657892 133.55,146.427892 C139.7,154.697892 148.15,159.957892 159.42,162.517892 C167.1,164.107892 174.35,164.427892 181.57,163.507892 C183.48,163.237892 185.14,163.097892 185.94,164.287892 C186.73,165.467892 185.96,166.987892 185.11,168.447892 C178.65,180.257892 171.91,192.187892 165.39,203.727892 C163.01,207.927892 160.64,212.147892 158.25,216.377892 L157.22,218.317892 C155.02,222.467892 152.75,226.757892 151.04,231.027892 C147.97,239.537892 149.83,245.007892 156.9,248.197892 C160.01,249.757892 163.02,249.317892 166.68,246.807892 C170.7,243.787892 174.02,240.147892 176.73,236.987892 C189.17,222.847892 199.12,210.507892 208.04,198.157892 C225.08,173.927892 243.09,148.007892 259.45,121.167892 C271.04,101.767892 281.15,81.9678921 289.49,62.3378921 C290.7,59.1778921 292.3,55.8278921 295.63,53.0578921 C306.21,43.7678921 317.21,36.0778921 329.23,29.5678921 C332.31,27.8878921 334.77,26.6978921 337.54,25.9378921 C338.81,25.5578921 340.16,25.2478921 341.03,26.1478921 C341.96,27.0978921 341.45,28.6078921 341.12,29.6078921 C339.42,34.7278921 337.59,39.2178921 335.53,43.3378921 C326.31,61.7878921 316.68,80.5378921 307.36,98.6778921 L307.15,99.0778921 C293.92,124.517892 281.23,149.467892 271.31,175.027892 C267.02,185.887892 264.09,195.007892 262.08,203.727892 C260.48,210.357892 262.12,214.857892 267.25,217.887892 C270.39,219.847892 272.51,220.017892 276.14,215.657892 L276.94,214.677892 C279.99,210.937892 283.13,207.067892 285.87,203.187892 C301.45,181.527892 317.72,159.997892 335.62,137.357892 C351.9,116.937892 365.72,100.877892 379.13,86.8078921 C395.42,69.8078921 412.99,51.8378921 432.97,35.4878921 C441.03,28.8978921 449.76,22.3678921 458.92,16.0878921 C459.63,15.6178921 460.62,14.9478921 461.74,14.9478921 C462.14,14.9478921 462.56,15.0378921 462.99,15.2478921 L464.3,15.9078921 L463.49,17.1278921 C459.74,22.7478921 455.45,28.0678921 451.29,33.2178921 L448.61,36.5478921 C432.58,56.8778921 414.01,80.6078921 396.69,105.027892 C386.35,119.707892 373.05,139.177892 361.87,159.627892 C349.6,182.537892 341.84,203.517892 338.16,223.757892 C336.26,233.547892 335.44,242.157892 335.67,250.097892 C336.1,254.767892 336.94,260.197892 339.95,264.447892 C342.38,268.097892 345.65,270.297892 349.95,271.207892 C354.36,271.857892 359.43,269.607892 362.19,265.707892 C363.01,264.617892 363.24,264.047892 363.3,263.807892 C363.09,263.747892 362.6,263.657892 361.58,263.727892 C358.37,263.977892 355.09,264.227892 351.89,264.727892 C348.18,265.037892 346.97,264.117892 346.64,260.817892 C346.39,258.837892 346.13,256.747892 346.13,254.667892 C346.83,241.047892 350.24,226.137892 356.25,210.277892 C365.21,185.787892 378.72,162.287892 390.75,142.527892 C402.88,122.307892 416.24,103.347892 427.71,87.4678921 C431.33,82.4778921 434.99,77.5178921 438.65,72.5778921 L438.66,72.5878921 Z M259.44,93.1478921 C239.41,128.567892 187.55,204.777892 175.37,216.697892 L169.78,222.167892 L173.31,215.187892 C197.34,167.657892 224.84,127.237892 257.36,91.6278921 L265.07,83.1878921 L259.44,93.1378921 L259.44,93.1478921 Z M284.97,41.8778921 C284.6,42.9878921 284.23,44.0878921 283.91,45.1678921 C283,47.5878921 281.34,48.9778921 279.73,50.3178921 C262.83,66.2178921 246.65,83.4178921 231.69,101.367892 C217.28,118.827892 205.57,135.037892 195.9,150.917892 C193.56,154.747892 192.74,155.757892 190.02,155.757892 C189.24,155.757892 188.3,155.677892 187.12,155.547892 C181.03,155.057892 174.71,154.547892 168.13,154.297892 C158.52,154.017892 150.35,150.867892 144.31,148.157892 L144.26,148.137892 C135.83,143.927892 136.54,135.657892 138.56,127.337892 C140.39,120.467892 144.76,112.057892 151.56,102.297892 C161.84,87.4578921 175.73,73.7978921 194.04,60.5678921 C209.03,49.8978921 224.74,41.0678921 240.74,34.3178921 C249.26,30.8178921 259.44,27.0678921 270.46,25.6878921 C275.22,25.1278921 279.21,24.9578921 283.23,25.9678921 C286.06,26.9078921 287.22,28.6278921 287.22,31.7478921 C287.22,35.1278921 286.07,38.5578921 284.96,41.8778921 L284.97,41.8778921 Z"/>
    <path d="M620.78,164.127892 C621.04,168.037892 622.13,170.827892 624.21,172.907892 C629.01,178.357892 636.11,180.597892 645.96,179.807892 C657.49,178.757892 668.17,172.727892 676.18,167.597892 C688.08,160.047892 699.08,150.427892 709.72,141.127892 L712.16,138.997892 C713.06,138.097892 713.76,137.167892 714.5,136.177892 C715.02,135.477892 715.16,134.727892 715,134.377892 C714.66,134.067892 714.34,134.007892 713.51,134.207892 C711.71,134.657892 710.1,135.807892 708.4,137.017892 L707.21,137.987892 C701.14,142.887892 694.87,147.957892 688.37,152.607892 C680.88,158.227892 670.88,165.347892 660.04,170.497892 C655.13,172.607892 649.91,174.727892 644.48,175.767892 C638.49,176.587892 635.1,174.557892 633.74,169.387892 C632.65,164.197892 634.14,158.827892 635.74,154.247892 C640.04,143.607892 646.94,133.767892 657.48,123.227892 C663.47,117.007892 671.29,113.007892 680.73,111.347892 C682.41,111.187892 683.54,111.257892 684.2,112.057892 C684.84,112.837892 684.69,113.907892 684.28,115.277892 C683.25,118.617892 681.21,121.687892 679.23,124.657892 C675.85,128.947892 671.54,132.707892 665.59,136.567892 C664.13,137.587892 663.96,138.037892 663.96,138.177892 C663.96,138.227892 664,138.537892 664.9,139.207892 C667.04,140.767892 669.72,140.657892 673.3,138.867892 C681.19,134.427892 687.39,128.627892 692.21,121.157892 C695.45,116.057892 695.47,112.557892 692.28,108.677892 C687.9,103.807892 682.14,101.147892 676.48,101.357892 C666.91,101.357892 658.28,104.447892 650.08,110.797892 C640.85,117.927892 633.47,126.457892 628.16,136.147892 L627.97,136.387892 L597.74,165.127892 C594.06,168.557892 590.28,172.087892 585.54,174.847892 C584.72,175.587892 583.63,175.827892 582.81,175.427892 C581.36,174.467892 581.83,173.057892 582.08,172.297892 C583.48,168.087892 585.04,164.397892 586.84,161.027892 C591.04,152.397892 596.22,143.377892 602.21,134.247892 C604.41,130.697892 606.57,127.117892 608.73,123.547892 C610.9,119.947892 613.07,116.357892 615.3,112.757892 C616.23,111.367892 617.09,110.077892 616.9,108.967892 C616.27,106.017892 613.66,104.977892 610.93,104.297892 C608.93,103.947892 607.57,105.537892 605.99,107.657892 C599.54,115.307892 593.15,123.597892 586.97,132.357892 C586,133.787892 585.05,135.247892 584.11,136.707892 L583.95,136.957892 L583.68,137.067892 C583.24,137.247892 582.81,137.427892 582.39,137.617892 C576.55,140.627892 570.81,144.117892 565.26,147.487892 C563.1,148.797892 560.94,150.117892 558.76,151.407892 L558.41,151.687892 C557.51,152.387892 556.4,153.267892 554.82,153.267892 L554.04,153.267892 L553.89,152.497892 C553.57,150.877892 554.23,149.877892 554.77,149.067892 C556.93,145.227892 559.2,141.197892 561.68,137.217892 C565.7,130.367892 569.85,123.047892 574.02,115.507892 C576.92,110.427892 576.17,108.557892 573.24,106.057892 C571.81,104.727892 570.6,104.097892 569.48,104.197892 C568.1,104.267892 566.57,105.297892 564.68,107.447892 C564,108.267892 563.38,109.107892 562.79,109.907892 C562.35,110.507892 561.92,111.087892 561.5,111.617892 C560.87,112.457892 560.06,112.897892 559.24,112.847892 C558.63,112.787892 558.11,112.437892 557.77,111.847892 L556.38,110.457892 C551.98,105.617892 541.36,100.767892 530.08,107.147892 C525.76,109.437892 521.92,112.127892 518.64,115.177892 C511.36,122.347892 505.32,130.227892 500.7,138.577892 L500.52,138.807892 C499.75,139.527892 498.99,140.277892 498.15,141.117892 C495.47,143.607892 492.85,146.107892 490.23,148.607892 C482.46,156.007892 474.43,163.667892 465.67,170.377892 C463.42,172.127892 461.13,173.657892 458.88,174.907892 L458.25,175.257892 L457.74,174.747892 C456.58,173.587892 457.01,172.317892 457.26,171.547892 C460.87,161.837892 464.94,153.367892 469.72,145.637892 C474.59,137.747892 479.95,129.287892 486.08,120.857892 C486.6,120.077892 487.16,119.267892 487.72,118.447892 C489.19,116.317892 490.71,114.107892 491.95,111.807892 C493.88,108.907892 493.3,107.507892 491.66,106.047892 C490.74,105.127892 489.62,104.457892 488.28,104.017892 C486.65,103.547892 485.04,103.987892 483.52,105.307892 C482.11,106.967892 480.33,108.747892 478.62,110.457892 C477.25,111.987892 476.58,112.717892 475.67,112.657892 C474.8,112.617892 474.3,111.957892 473.48,110.847892 C466.52,102.497892 456.77,101.797892 445.32,108.857892 C437.68,113.767892 431.94,119.027892 427.8,124.917892 C425.13,128.557892 422.38,132.307892 419.9,136.027892 C413.59,146.457892 409.67,157.097892 407.93,168.527892 C406.84,174.847892 408.72,177.597892 415.12,179.077892 C418.92,179.927892 422.62,178.847892 426.43,175.797892 C431.96,172.027892 436.49,167.187892 440.66,162.557892 C441.52,161.577892 442.39,160.647892 443.26,159.707892 C444.12,158.787892 444.98,157.857892 445.85,156.877892 L448.6,153.737892 L447.48,157.757892 C446.12,162.667892 445.24,166.907892 444.79,170.717892 C444.26,174.147892 444.96,176.957892 446.81,178.877892 C448.76,180.897892 451.87,181.747892 455.59,181.287892 C461.72,180.267892 466.73,176.377892 470.41,173.107892 C477.45,167.077892 484.63,160.067892 493.02,151.057892 L496.19,147.647892 L494.61,152.027892 C492.54,157.767892 491,163.817892 490.02,170.017892 C489.61,171.867892 489.69,173.827892 490.25,176.067892 C490.66,177.497892 491.45,178.547892 492.82,179.467892 C496.68,182.187892 504.18,182.167892 509.22,177.807892 C513.26,174.407892 517.99,170.287892 522.5,165.517892 C523.02,164.717892 523.87,163.657892 525.48,162.847892 L528.26,161.457892 L525.17,166.967892 C523.62,169.747892 522.28,172.147892 520.78,174.577892 C519.65,176.547892 518.24,177.877892 516.87,179.017892 C514.55,180.687892 512.29,182.357892 510.01,184.027892 C506.12,186.887892 502.09,189.847892 498.01,192.667892 C487.68,200.307892 475.73,209.307892 464.98,219.287892 C453.33,229.697892 444.77,241.637892 439.5,254.797892 C437.7,259.417892 437.15,263.617892 437.82,267.637892 C438.25,270.217892 439.47,271.697892 441.9,272.587892 C444.75,273.467892 447.63,273.317892 451.33,272.787892 C460.34,271.207892 468.84,266.597892 477.27,258.697892 C486.52,250.087892 495.26,240.057892 505.59,226.187892 C518.69,208.367892 530.29,190.097892 539.91,174.577892 C541.93,171.037892 544.77,167.947892 548.32,165.407892 C556.05,159.727892 566.31,152.287892 577.02,145.207892 L580.17,143.127892 L578.39,146.447892 C574.76,153.197892 572.21,159.487892 570.56,165.677892 L570.49,165.857892 C569.82,167.197892 569.58,169.127892 569.35,170.987892 C568.92,174.697892 569.65,177.597892 571.48,179.367892 C573.37,181.207892 576.46,181.877892 580.39,181.297892 C587.78,180.557892 593.67,176.217892 598.94,171.627892 C605.67,165.737892 612.55,158.977892 620.59,150.347892 L623.15,147.607892 L622.21,151.237892 C621,155.917892 620.53,160.127892 620.79,164.127892 L620.78,164.127892 Z M427.64,166.377892 L426.79,167.117892 C425.37,168.357892 423.91,169.647892 421.73,170.737892 L420.49,171.357892 L420.35,169.987892 C420.08,167.297892 420.88,165.147892 421.66,163.337892 C428.05,147.377892 437.85,132.717892 450.79,119.767892 C453.72,117.097892 456.88,115.037892 459.87,113.197892 C461.15,112.167892 462.73,111.637892 464.27,111.127892 L464.47,111.087892 C468.17,110.667892 469.04,112.817892 469.22,114.117892 C469.72,116.627892 469.28,119.327892 467.89,122.097892 C466.43,125.027892 464.42,128.077892 462.09,130.927892 C453,141.057892 440.89,154.207892 427.63,166.377892 L427.64,166.377892 Z M507.16,197.087892 C506.3,198.437892 505.5,199.787892 504.7,201.137892 C503.89,202.507892 503.08,203.877892 502.21,205.247892 L502.19,205.267892 C500.03,208.437892 497.91,211.647892 495.78,214.857892 C489.68,224.057892 483.38,233.567892 476.18,242.417892 C475.04,243.827892 473.92,245.247892 472.79,246.667892 C468.82,251.677892 464.71,256.857892 460.05,261.527892 C458.28,263.047892 456.51,264.567892 454.51,266.067892 C453.69,266.537892 452.98,266.767892 452.36,266.767892 C452.01,266.767892 451.7,266.697892 451.4,266.557892 C450.89,266.317892 450.25,265.757892 450.03,264.467892 C449.4,259.757892 449.73,255.917892 451.07,252.357892 C454.42,243.647892 460.06,235.377892 468.83,226.317892 C476.62,218.077892 485.96,209.877892 497.37,201.247892 C499.8,199.307892 502.33,197.277892 505.1,195.517892 L505.33,195.367892 L505.61,195.367892 C505.96,195.367892 506.23,195.507892 506.4,195.587892 L508.13,195.587892 L507.15,197.067892 L507.16,197.087892 Z M546.36,130.237892 L546.23,130.367892 C535.34,141.747892 524.07,153.517892 513.24,165.327892 C510.77,168.297892 507.99,171.077892 504.51,174.057892 L502.94,175.397892 L502.94,173.327892 C502.94,169.437892 504.13,166.407892 505.28,163.477892 L505.72,162.357892 C510.35,150.897892 516.48,137.527892 526.9,125.247892 C529.88,121.517892 533.18,118.227892 536.68,115.467892 C539.38,113.367892 541.58,112.027892 543.84,111.127892 C546.61,109.967892 548.67,109.837892 550.12,110.747892 C551.46,111.577892 552.17,113.187892 552.31,115.667892 L552.31,115.967892 C552.57,123.607892 552.45,123.877892 546.36,130.227892 L546.36,130.237892 Z"/>
    <polygon points="5.82 489.208 0 489.208 7.98 441.138 13.8 441.138"/>
    <path d="M22.72 453.167892L28.07 453.167892 27.13 458.797892 27.6 458.797892C29.76 454.947892 33.61 452.697892 38.3 452.697892 42.99 452.697892 45.81 454.947892 46.93 458.797892L47.31 458.797892C49.75 455.037892 53.97 452.697892 59.14 452.697892 65.53 452.697892 69.47 456.637892 68.06 465.087892L64.02 489.217892 58.48 489.217892 62.52 465.087892C63.36 459.737892 60.36 457.667892 56.42 457.667892 51.35 457.667892 47.88 461.047892 47.13 465.737892L43.19 489.207892 37.56 489.207892 41.69 464.517892C42.35 460.387892 39.91 457.667892 35.68 457.667892 31.45 457.667892 26.86 461.417892 26.01 466.677892L22.25 489.207892 16.71 489.207892 22.72 453.157892 22.72 453.167892zM74.15 478.977892C75.56 470.717892 83.07 469.217892 89.92 468.367892 96.59 467.527892 99.31 467.707892 99.78 465.077892L99.78 464.887892C100.53 460.287892 98.65 457.567892 93.58 457.567892 88.51 457.567892 84.76 460.387892 83.07 463.017892L78.19 461.137892C82.04 454.567892 88.61 452.687892 94.06 452.687892 98.66 452.687892 107.11 453.997892 105.23 465.457892L101.29 489.207892 95.75 489.207892 96.59 484.327892 96.31 484.327892C94.81 486.677892 90.96 490.057892 84.67 490.057892 77.82 490.057892 73.03 486.017892 74.16 478.977892L74.15 478.977892zM97.9 476.167892L98.75 471.097892C97.62 472.227892 91.24 472.877892 88.89 473.167892 84.48 473.727892 80.35 475.047892 79.69 479.267892 79.03 483.117892 81.85 485.087892 86.26 485.087892 92.83 485.087892 97.15 480.677892 97.9 476.167892L97.9 476.167892zM110.1 496.257892L115.08 493.157892C116.2 495.157892 117.76 498.597892 124.37 498.597892 130.14 498.597892 134.98 495.877892 136.01 489.867892L137.14 482.547892 136.67 482.547892C135.17 484.517892 132.23 488.647892 125.22 488.647892 116.47 488.647892 110.95 482.257892 112.83 470.997892 114.64 459.917892 122.12 452.687892 131.23 452.687892 138.27 452.687892 139.82 457.007892 140.71 458.887892L141.28 458.887892 142.22 453.157892 147.57 453.157892 141.47 490.237892C139.92 499.527892 132.32 503.477892 123.73 503.477892 115.63 503.477892 111.79 500.027892 110.12 496.247892L110.1 496.257892zM139.2 470.907892C140.49 463.117892 137.56 457.667892 130.85 457.667892 123.76 457.667892 119.59 463.577892 118.36 470.907892 117.12 478.417892 119.63 483.677892 126.62 483.677892 133.24 483.677892 137.88 478.887892 139.2 470.907892L139.2 470.907892zM157.68 453.167892L163.22 453.167892 157.21 489.217892 151.67 489.217892 157.68 453.167892zM158.2 443.307892C158.2 441.247892 159.98 439.547892 162.14 439.547892 164.3 439.547892 166.08 441.237892 166.08 443.307892 166.08 445.377892 164.3 447.057892 162.14 447.057892 159.98 447.057892 158.2 445.367892 158.2 443.307892zM172.88 489.207892L167.34 489.207892 173.35 453.157892 178.7 453.157892 177.76 458.787892 178.23 458.787892C180.48 455.127892 184.33 452.687892 189.78 452.687892 197.01 452.687892 201.23 457.097892 199.73 466.297892L195.88 489.207892 190.34 489.207892 194.09 466.677892C195.03 461.047892 192.5 457.667892 187.33 457.667892 182.16 457.667892 177.57 461.237892 176.44 467.527892L172.87 489.217892 172.88 489.207892zM207.33 471.467892C209.13 460.387892 216.93 452.687892 226.67 452.687892 234.21 452.687892 241.43 457.287892 239.16 470.707892L238.79 473.057892 212.57 473.057892C211.23 481.877892 214.94 484.977892 221.89 484.977892 226.32 484.977892 229.8 483.097892 231.84 479.347892L236.91 480.847892C234.3 486.297892 228.39 489.957892 221.04 489.957892 210.64 489.957892 205.48 482.537892 207.33 471.467892L207.33 471.467892zM233.9 468.277892C234.96 462.177892 231.86 457.667892 225.82 457.667892 219.78 457.667892 214.44 463.157892 213.34 468.277892L233.9 468.277892zM245.06 485.367892C245.01 483.017892 246.99 481.237892 249.29 481.237892 251.59 481.237892 253.56 483.117892 253.51 485.367892 253.46 487.717892 251.59 489.587892 249.29 489.587892 246.99 489.587892 245.11 487.707892 245.06 485.367892zM290.11 441.147892L306.91 441.147892C316.95 441.147892 320.71 446.877892 319.49 453.917892 318.46 460.117892 314.33 462.837892 310.1 463.957892L310.01 464.427892C314.33 464.707892 318.93 468.837892 317.71 476.447892 316.49 483.677892 310.86 489.217892 299.5 489.217892L282.13 489.217892 290.11 441.147892 290.11 441.147892zM300.34 484.047892C307.94 484.047892 311.42 480.667892 312.17 476.437892 312.92 471.557892 309.73 467.337892 303.44 467.337892L291.61 467.337892 288.8 484.047892 300.35 484.047892 300.34 484.047892zM303.25 462.267892C308.51 462.267892 313.2 458.977892 313.95 453.917892 314.7 449.687892 312.45 446.307892 306.07 446.307892L295.09 446.307892 292.46 462.267892 303.25 462.267892zM325.68 471.467892C327.48 460.387892 335.28 452.687892 345.02 452.687892 352.56 452.687892 359.78 457.287892 357.51 470.707892L357.14 473.057892 330.92 473.057892C329.58 481.877892 333.29 484.977892 340.24 484.977892 344.67 484.977892 348.15 483.097892 350.19 479.347892L355.26 480.847892C352.65 486.297892 346.74 489.957892 339.39 489.957892 328.99 489.957892 323.83 482.537892 325.68 471.467892L325.68 471.467892zM352.25 468.277892C353.31 462.177892 350.21 457.667892 344.17 457.667892 338.13 457.667892 332.79 463.157892 331.69 468.277892L352.25 468.277892z"/>
    <polygon points="368.48 489.208 362.94 489.208 370.92 441.138 376.46 441.138"/>
    <path d="M384.62 453.167892L390.16 453.167892 384.15 489.217892 378.61 489.217892 384.62 453.167892zM385.14 443.307892C385.14 441.247892 386.92 439.547892 389.08 439.547892 391.24 439.547892 393.02 441.237892 393.02 443.307892 393.02 445.377892 391.24 447.057892 389.08 447.057892 386.92 447.057892 385.14 445.367892 385.14 443.307892zM395.6 471.467892C397.41 460.387892 405.2 452.687892 414.94 452.687892 422.47 452.687892 429.7 457.287892 427.42 470.707892L427.05 473.057892 400.83 473.057892C399.49 481.877892 403.2 484.977892 410.15 484.977892 414.59 484.977892 418.06 483.097892 420.1 479.347892L425.17 480.847892C422.56 486.297892 416.65 489.957892 409.3 489.957892 398.9 489.957892 393.74 482.537892 395.59 471.467892L395.6 471.467892zM422.17 468.277892C423.23 462.177892 420.13 457.667892 414.1 457.667892 408.07 457.667892 402.72 463.157892 401.61 468.277892L422.17 468.277892z"/>
    <polygon points="447.88 489.208 442.25 489.208 434.93 453.158 440.7 453.158 445.86 481.888 446.23 481.888 460.97 453.158 467.21 453.158 447.87 489.208"/>
    <path d="M468.53 471.467892C470.34 460.387892 478.13 452.687892 487.87 452.687892 495.4 452.687892 502.63 457.287892 500.36 470.707892L499.99 473.057892 473.77 473.057892C472.43 481.877892 476.14 484.977892 483.08 484.977892 487.52 484.977892 490.99 483.097892 493.03 479.347892L498.1 480.847892C495.5 486.297892 489.58 489.957892 482.23 489.957892 471.83 489.957892 466.67 482.537892 468.52 471.467892L468.53 471.467892zM495.1 468.277892C496.16 462.177892 493.06 457.667892 487.03 457.667892 481 457.667892 475.65 463.157892 474.54 468.277892L495.1 468.277892zM506.26 485.367892C506.21 483.017892 508.19 481.237892 510.49 481.237892 512.79 481.237892 514.76 483.117892 514.71 485.367892 514.66 487.717892 512.78 489.587892 510.49 489.587892 508.2 489.587892 506.31 487.707892 506.26 485.367892zM539.2 489.207892L564.83 441.137892 570.84 441.137892 580.51 489.207892 574.41 489.207892 571.85 475.597892 552.42 475.597892 545.31 489.207892 539.21 489.207892 539.2 489.207892zM570.89 470.437892L566.81 448.757892 566.43 448.757892 555.12 470.437892 570.89 470.437892zM588.57 471.377892C590.33 460.397892 598.12 452.697892 607.91 452.697892 615.49 452.697892 620.47 457.207892 620.3 463.967892L614.76 463.967892C614.45 460.677892 612.02 457.677892 607.16 457.677892 600.66 457.677892 595.4 463.027892 594.11 471.197892 592.68 479.547892 596.06 484.997892 602.66 484.997892 606.95 484.997892 610.61 482.647892 612.33 478.707892L617.87 478.707892C615.78 485.087892 609.77 489.977892 601.82 489.977892 591.66 489.977892 586.77 482.187892 588.58 471.387892L588.57 471.377892zM629.68 489.207892L624.14 489.207892 632.12 441.137892 637.66 441.137892 634.75 458.787892 635.22 458.787892C637.47 455.027892 641.13 452.687892 646.86 452.687892 654.18 452.687892 658.41 457.007892 656.91 466.297892L653.06 489.207892 647.52 489.207892 651.28 466.677892C652.22 460.947892 649.59 457.667892 644.43 457.667892 638.98 457.667892 634.39 461.237892 633.26 467.527892L629.69 489.217892 629.68 489.207892zM669.19 453.167892L674.73 453.167892 668.72 489.217892 663.18 489.217892 669.19 453.167892zM669.71 443.307892C669.71 441.247892 671.49 439.547892 673.65 439.547892 675.81 439.547892 677.59 441.237892 677.59 443.307892 677.59 445.377892 675.81 447.057892 673.65 447.057892 671.49 447.057892 669.71 445.367892 669.71 443.307892zM680.17 471.467892C681.98 460.387892 689.77 452.687892 699.51 452.687892 707.04 452.687892 714.27 457.287892 712 470.707892L711.63 473.057892 685.41 473.057892C684.07 481.877892 687.78 484.977892 694.72 484.977892 699.16 484.977892 702.63 483.097892 704.67 479.347892L709.74 480.847892C707.14 486.297892 701.22 489.957892 693.87 489.957892 683.47 489.957892 678.31 482.537892 680.16 471.467892L680.17 471.467892zM706.74 468.277892C707.8 462.177892 704.7 457.667892 698.67 457.667892 692.64 457.667892 687.29 463.157892 686.18 468.277892L706.74 468.277892 706.74 468.277892z"/>
    <polygon points="732.45 489.208 726.82 489.208 719.5 453.158 725.27 453.158 730.43 481.888 730.8 481.888 745.54 453.158 751.78 453.158 732.44 489.208"/>
    <path d="M753.1 471.467892C754.91 460.387892 762.7 452.687892 772.44 452.687892 779.97 452.687892 787.2 457.287892 784.93 470.707892L784.56 473.057892 758.34 473.057892C757 481.877892 760.71 484.977892 767.65 484.977892 772.09 484.977892 775.56 483.097892 777.6 479.347892L782.67 480.847892C780.07 486.297892 774.15 489.957892 766.8 489.957892 756.4 489.957892 751.24 482.537892 753.09 471.467892L753.1 471.467892zM779.67 468.277892C780.73 462.177892 777.63 457.667892 771.6 457.667892 765.57 457.667892 760.22 463.157892 759.11 468.277892L779.67 468.277892 779.67 468.277892zM790.83 485.367892C790.78 483.017892 792.76 481.237892 795.06 481.237892 797.36 481.237892 799.33 483.117892 799.28 485.367892 799.23 487.717892 797.35 489.587892 795.06 489.587892 792.77 489.587892 790.88 487.707892 790.83 485.367892z"/>
    <circle cx="622.74" cy="93.048" r="5.76"/>
  </g>
</svg>
